<?xml version="1.0" encoding="utf-8" standalone="no"?>
<!DOCTYPE svg PUBLIC "-//W3C//DTD SVG 1.1//EN" "http://www.w3.org/Graphics/SVG/1.1/DTD/svg11.dtd">

<svg width="210mm" height="297mm" viewBox="0 0 210 297" xmlns="http://www.w3.org/2000/svg" xmlns:xlink="http://www.w3.org/1999/xlink" version="1.1" style="stroke:black; fill:none; stroke-width:0.5pt; stroke-linejoin:round; text-anchor:middle" font-family="Helvetica, Arial, FreeSans, Sans, sans, sans-serif">

<g>

<rect x="15.0" y="85.5" width="18.0" height="18.0" fill="black" stroke="none" />

<rect x="15.0" y="121.5" width="18.0" height="18.0" fill="black" stroke="none" />

<rect x="15.0" y="157.5" width="18.0" height="18.0" fill="black" stroke="none" />

<rect x="15.0" y="193.5" width="18.0" height="18.0" fill="black" stroke="none" />

<rect x="33.0" y="103.5" width="18.0" height="18.0" fill="black" stroke="none" />

<rect x="33.0" y="139.5" width="18.0" height="18.0" fill="black" stroke="none" />

<rect x="33.0" y="175.5" width="18.0" height="18.0" fill="black" stroke="none" />

<rect x="51.0" y="85.5" width="18.0" height="18.0" fill="black" stroke="none" />

<rect x="51.0" y="121.5" width="18.0" height="18.0" fill="black" stroke="none" />

<rect x="51.0" y="157.5" width="18.0" height="18.0" fill="black" stroke="none" />

<rect x="51.0" y="193.5" width="18.0" height="18.0" fill="black" stroke="none" />

<rect x="69.0" y="103.5" width="18.0" height="18.0" fill="black" stroke="none" />

<rect x="69.0" y="139.5" width="18.0" height="18.0" fill="black" stroke="none" />

<rect x="69.0" y="175.5" width="18.0" height="18.0" fill="black" stroke="none" />

<rect x="87.0" y="85.5" width="18.0" height="18.0" fill="black" stroke="none" />

<rect x="87.0" y="121.5" width="18.0" height="18.0" fill="black" stroke="none" />

<rect x="87.0" y="157.5" width="18.0" height="18.0" fill="black" stroke="none" />

<rect x="87.0" y="193.5" width="18.0" height="18.0" fill="black" stroke="none" />

<rect x="105.0" y="103.5" width="18.0" height="18.0" fill="black" stroke="none" />

<rect x="105.0" y="139.5" width="18.0" height="18.0" fill="black" stroke="none" />

<rect x="105.0" y="175.5" width="18.0" height="18.0" fill="black" stroke="none" />

<rect x="123.0" y="85.5" width="18.0" height="18.0" fill="black" stroke="none" />

<rect x="123.0" y="121.5" width="18.0" height="18.0" fill="black" stroke="none" />

<rect x="123.0" y="157.5" width="18.0" height="18.0" fill="black" stroke="none" />

<rect x="123.0" y="193.5" width="18.0" height="18.0" fill="black" stroke="none" />

<rect x="141.0" y="103.5" width="18.0" height="18.0" fill="black" stroke="none" />

<rect x="141.0" y="139.5" width="18.0" height="18.0" fill="black" stroke="none" />

<rect x="141.0" y="175.5" width="18.0" height="18.0" fill="black" stroke="none" />

<rect x="159.0" y="85.5" width="18.0" height="18.0" fill="black" stroke="none" />

<rect x="159.0" y="121.5" width="18.0" height="18.0" fill="black" stroke="none" />

<rect x="159.0" y="157.5" width="18.0" height="18.0" fill="black" stroke="none" />

<rect x="159.0" y="193.5" width="18.0" height="18.0" fill="black" stroke="none" />

<rect x="177.0" y="103.5" width="18.0" height="18.0" fill="black" stroke="none" />

<rect x="177.0" y="139.5" width="18.0" height="18.0" fill="black" stroke="none" />

<rect x="177.0" y="175.5" width="18.0" height="18.0" fill="black" stroke="none" />

</g>

</svg>

