<?xml version="1.0" encoding="utf-8" standalone="no"?>
<!DOCTYPE svg PUBLIC "-//W3C//DTD SVG 1.1//EN" "http://www.w3.org/Graphics/SVG/1.1/DTD/svg11.dtd">

<svg width="210mm" height="297mm" viewBox="0 0 210 297" xmlns="http://www.w3.org/2000/svg" xmlns:xlink="http://www.w3.org/1999/xlink" version="1.1" style="stroke:black; fill:none; stroke-width:0.5pt; stroke-linejoin:round; text-anchor:middle" font-family="Helvetica, Arial, FreeSans, Sans, sans, sans-serif">

<g>

<rect x="45.0" y="106.5" width="12.0" height="12.0" fill="black" stroke="none" />

<rect x="45.0" y="130.5" width="12.0" height="12.0" fill="black" stroke="none" />

<rect x="45.0" y="154.5" width="12.0" height="12.0" fill="black" stroke="none" />

<rect x="45.0" y="178.5" width="12.0" height="12.0" fill="black" stroke="none" />

<rect x="57.0" y="118.5" width="12.0" height="12.0" fill="black" stroke="none" />

<rect x="57.0" y="142.5" width="12.0" height="12.0" fill="black" stroke="none" />

<rect x="57.0" y="166.5" width="12.0" height="12.0" fill="black" stroke="none" />

<rect x="69.0" y="106.5" width="12.0" height="12.0" fill="black" stroke="none" />

<rect x="69.0" y="130.5" width="12.0" height="12.0" fill="black" stroke="none" />

<rect x="69.0" y="154.5" width="12.0" height="12.0" fill="black" stroke="none" />

<rect x="69.0" y="178.5" width="12.0" height="12.0" fill="black" stroke="none" />

<rect x="81.0" y="118.5" width="12.0" height="12.0" fill="black" stroke="none" />

<rect x="81.0" y="142.5" width="12.0" height="12.0" fill="black" stroke="none" />

<rect x="81.0" y="166.5" width="12.0" height="12.0" fill="black" stroke="none" />

<rect x="93.0" y="106.5" width="12.0" height="12.0" fill="black" stroke="none" />

<rect x="93.0" y="130.5" width="12.0" height="12.0" fill="black" stroke="none" />

<rect x="93.0" y="154.5" width="12.0" height="12.0" fill="black" stroke="none" />

<rect x="93.0" y="178.5" width="12.0" height="12.0" fill="black" stroke="none" />

<rect x="105.0" y="118.5" width="12.0" height="12.0" fill="black" stroke="none" />

<rect x="105.0" y="142.5" width="12.0" height="12.0" fill="black" stroke="none" />

<rect x="105.0" y="166.5" width="12.0" height="12.0" fill="black" stroke="none" />

<rect x="117.0" y="106.5" width="12.0" height="12.0" fill="black" stroke="none" />

<rect x="117.0" y="130.5" width="12.0" height="12.0" fill="black" stroke="none" />

<rect x="117.0" y="154.5" width="12.0" height="12.0" fill="black" stroke="none" />

<rect x="117.0" y="178.5" width="12.0" height="12.0" fill="black" stroke="none" />

<rect x="129.0" y="118.5" width="12.0" height="12.0" fill="black" stroke="none" />

<rect x="129.0" y="142.5" width="12.0" height="12.0" fill="black" stroke="none" />

<rect x="129.0" y="166.5" width="12.0" height="12.0" fill="black" stroke="none" />

<rect x="141.0" y="106.5" width="12.0" height="12.0" fill="black" stroke="none" />

<rect x="141.0" y="130.5" width="12.0" height="12.0" fill="black" stroke="none" />

<rect x="141.0" y="154.5" width="12.0" height="12.0" fill="black" stroke="none" />

<rect x="141.0" y="178.5" width="12.0" height="12.0" fill="black" stroke="none" />

<rect x="153.0" y="118.5" width="12.0" height="12.0" fill="black" stroke="none" />

<rect x="153.0" y="142.5" width="12.0" height="12.0" fill="black" stroke="none" />

<rect x="153.0" y="166.5" width="12.0" height="12.0" fill="black" stroke="none" />

</g>

</svg>

