<?xml version="1.0" encoding="utf-8" standalone="no"?>
<!DOCTYPE svg PUBLIC "-//W3C//DTD SVG 1.1//EN" "http://www.w3.org/Graphics/SVG/1.1/DTD/svg11.dtd">

<svg width="210mm" height="297mm" viewBox="0 0 210 297" xmlns="http://www.w3.org/2000/svg" xmlns:xlink="http://www.w3.org/1999/xlink" version="1.1" style="stroke:black; fill:none; stroke-width:0.5pt; stroke-linejoin:round; text-anchor:middle" font-family="Helvetica, Arial, FreeSans, Sans, sans, sans-serif">

<g>

<rect x="35.0" y="99.5" width="14.0" height="14.0" fill="black" stroke="none" />

<rect x="35.0" y="127.5" width="14.0" height="14.0" fill="black" stroke="none" />

<rect x="35.0" y="155.5" width="14.0" height="14.0" fill="black" stroke="none" />

<rect x="35.0" y="183.5" width="14.0" height="14.0" fill="black" stroke="none" />

<rect x="49.0" y="113.5" width="14.0" height="14.0" fill="black" stroke="none" />

<rect x="49.0" y="141.5" width="14.0" height="14.0" fill="black" stroke="none" />

<rect x="49.0" y="169.5" width="14.0" height="14.0" fill="black" stroke="none" />

<rect x="63.0" y="99.5" width="14.0" height="14.0" fill="black" stroke="none" />

<rect x="63.0" y="127.5" width="14.0" height="14.0" fill="black" stroke="none" />

<rect x="63.0" y="155.5" width="14.0" height="14.0" fill="black" stroke="none" />

<rect x="63.0" y="183.5" width="14.0" height="14.0" fill="black" stroke="none" />

<rect x="77.0" y="113.5" width="14.0" height="14.0" fill="black" stroke="none" />

<rect x="77.0" y="141.5" width="14.0" height="14.0" fill="black" stroke="none" />

<rect x="77.0" y="169.5" width="14.0" height="14.0" fill="black" stroke="none" />

<rect x="91.0" y="99.5" width="14.0" height="14.0" fill="black" stroke="none" />

<rect x="91.0" y="127.5" width="14.0" height="14.0" fill="black" stroke="none" />

<rect x="91.0" y="155.5" width="14.0" height="14.0" fill="black" stroke="none" />

<rect x="91.0" y="183.5" width="14.0" height="14.0" fill="black" stroke="none" />

<rect x="105.0" y="113.5" width="14.0" height="14.0" fill="black" stroke="none" />

<rect x="105.0" y="141.5" width="14.0" height="14.0" fill="black" stroke="none" />

<rect x="105.0" y="169.5" width="14.0" height="14.0" fill="black" stroke="none" />

<rect x="119.0" y="99.5" width="14.0" height="14.0" fill="black" stroke="none" />

<rect x="119.0" y="127.5" width="14.0" height="14.0" fill="black" stroke="none" />

<rect x="119.0" y="155.5" width="14.0" height="14.0" fill="black" stroke="none" />

<rect x="119.0" y="183.5" width="14.0" height="14.0" fill="black" stroke="none" />

<rect x="133.0" y="113.5" width="14.0" height="14.0" fill="black" stroke="none" />

<rect x="133.0" y="141.5" width="14.0" height="14.0" fill="black" stroke="none" />

<rect x="133.0" y="169.5" width="14.0" height="14.0" fill="black" stroke="none" />

<rect x="147.0" y="99.5" width="14.0" height="14.0" fill="black" stroke="none" />

<rect x="147.0" y="127.5" width="14.0" height="14.0" fill="black" stroke="none" />

<rect x="147.0" y="155.5" width="14.0" height="14.0" fill="black" stroke="none" />

<rect x="147.0" y="183.5" width="14.0" height="14.0" fill="black" stroke="none" />

<rect x="161.0" y="113.5" width="14.0" height="14.0" fill="black" stroke="none" />

<rect x="161.0" y="141.5" width="14.0" height="14.0" fill="black" stroke="none" />

<rect x="161.0" y="169.5" width="14.0" height="14.0" fill="black" stroke="none" />

</g>

</svg>

