<?xml version="1.0" encoding="utf-8" standalone="no"?>
<!DOCTYPE svg PUBLIC "-//W3C//DTD SVG 1.1//EN" "http://www.w3.org/Graphics/SVG/1.1/DTD/svg11.dtd">

<svg width="210mm" height="297mm" viewBox="0 0 210 297" xmlns="http://www.w3.org/2000/svg" xmlns:xlink="http://www.w3.org/1999/xlink" version="1.1" style="stroke:black; fill:none; stroke-width:0.5pt; stroke-linejoin:round; text-anchor:middle" font-family="Helvetica, Arial, FreeSans, Sans, sans, sans-serif">

<g>

<rect x="55.0" y="113.5" width="10.0" height="10.0" fill="black" stroke="none" />

<rect x="55.0" y="133.5" width="10.0" height="10.0" fill="black" stroke="none" />

<rect x="55.0" y="153.5" width="10.0" height="10.0" fill="black" stroke="none" />

<rect x="55.0" y="173.5" width="10.0" height="10.0" fill="black" stroke="none" />

<rect x="65.0" y="123.5" width="10.0" height="10.0" fill="black" stroke="none" />

<rect x="65.0" y="143.5" width="10.0" height="10.0" fill="black" stroke="none" />

<rect x="65.0" y="163.5" width="10.0" height="10.0" fill="black" stroke="none" />

<rect x="75.0" y="113.5" width="10.0" height="10.0" fill="black" stroke="none" />

<rect x="75.0" y="133.5" width="10.0" height="10.0" fill="black" stroke="none" />

<rect x="75.0" y="153.5" width="10.0" height="10.0" fill="black" stroke="none" />

<rect x="75.0" y="173.5" width="10.0" height="10.0" fill="black" stroke="none" />

<rect x="85.0" y="123.5" width="10.0" height="10.0" fill="black" stroke="none" />

<rect x="85.0" y="143.5" width="10.0" height="10.0" fill="black" stroke="none" />

<rect x="85.0" y="163.5" width="10.0" height="10.0" fill="black" stroke="none" />

<rect x="95.0" y="113.5" width="10.0" height="10.0" fill="black" stroke="none" />

<rect x="95.0" y="133.5" width="10.0" height="10.0" fill="black" stroke="none" />

<rect x="95.0" y="153.5" width="10.0" height="10.0" fill="black" stroke="none" />

<rect x="95.0" y="173.5" width="10.0" height="10.0" fill="black" stroke="none" />

<rect x="105.0" y="123.5" width="10.0" height="10.0" fill="black" stroke="none" />

<rect x="105.0" y="143.5" width="10.0" height="10.0" fill="black" stroke="none" />

<rect x="105.0" y="163.5" width="10.0" height="10.0" fill="black" stroke="none" />

<rect x="115.0" y="113.5" width="10.0" height="10.0" fill="black" stroke="none" />

<rect x="115.0" y="133.5" width="10.0" height="10.0" fill="black" stroke="none" />

<rect x="115.0" y="153.5" width="10.0" height="10.0" fill="black" stroke="none" />

<rect x="115.0" y="173.5" width="10.0" height="10.0" fill="black" stroke="none" />

<rect x="125.0" y="123.5" width="10.0" height="10.0" fill="black" stroke="none" />

<rect x="125.0" y="143.5" width="10.0" height="10.0" fill="black" stroke="none" />

<rect x="125.0" y="163.5" width="10.0" height="10.0" fill="black" stroke="none" />

<rect x="135.0" y="113.5" width="10.0" height="10.0" fill="black" stroke="none" />

<rect x="135.0" y="133.5" width="10.0" height="10.0" fill="black" stroke="none" />

<rect x="135.0" y="153.5" width="10.0" height="10.0" fill="black" stroke="none" />

<rect x="135.0" y="173.5" width="10.0" height="10.0" fill="black" stroke="none" />

<rect x="145.0" y="123.5" width="10.0" height="10.0" fill="black" stroke="none" />

<rect x="145.0" y="143.5" width="10.0" height="10.0" fill="black" stroke="none" />

<rect x="145.0" y="163.5" width="10.0" height="10.0" fill="black" stroke="none" />

</g>

</svg>

