<?xml version="1.0" encoding="utf-8" standalone="no"?>
<!DOCTYPE svg PUBLIC "-//W3C//DTD SVG 1.1//EN" "http://www.w3.org/Graphics/SVG/1.1/DTD/svg11.dtd">

<svg width="210mm" height="297mm" viewBox="0 0 210 297" xmlns="http://www.w3.org/2000/svg" xmlns:xlink="http://www.w3.org/1999/xlink" version="1.1" style="stroke:black; fill:none; stroke-width:0.5pt; stroke-linejoin:round; text-anchor:middle" font-family="Helvetica, Arial, FreeSans, Sans, sans, sans-serif">

<g>

<rect x="65.0" y="120.5" width="8.0" height="8.0" fill="black" stroke="none" />

<rect x="65.0" y="136.5" width="8.0" height="8.0" fill="black" stroke="none" />

<rect x="65.0" y="152.5" width="8.0" height="8.0" fill="black" stroke="none" />

<rect x="65.0" y="168.5" width="8.0" height="8.0" fill="black" stroke="none" />

<rect x="73.0" y="128.5" width="8.0" height="8.0" fill="black" stroke="none" />

<rect x="73.0" y="144.5" width="8.0" height="8.0" fill="black" stroke="none" />

<rect x="73.0" y="160.5" width="8.0" height="8.0" fill="black" stroke="none" />

<rect x="81.0" y="120.5" width="8.0" height="8.0" fill="black" stroke="none" />

<rect x="81.0" y="136.5" width="8.0" height="8.0" fill="black" stroke="none" />

<rect x="81.0" y="152.5" width="8.0" height="8.0" fill="black" stroke="none" />

<rect x="81.0" y="168.5" width="8.0" height="8.0" fill="black" stroke="none" />

<rect x="89.0" y="128.5" width="8.0" height="8.0" fill="black" stroke="none" />

<rect x="89.0" y="144.5" width="8.0" height="8.0" fill="black" stroke="none" />

<rect x="89.0" y="160.5" width="8.0" height="8.0" fill="black" stroke="none" />

<rect x="97.0" y="120.5" width="8.0" height="8.0" fill="black" stroke="none" />

<rect x="97.0" y="136.5" width="8.0" height="8.0" fill="black" stroke="none" />

<rect x="97.0" y="152.5" width="8.0" height="8.0" fill="black" stroke="none" />

<rect x="97.0" y="168.5" width="8.0" height="8.0" fill="black" stroke="none" />

<rect x="105.0" y="128.5" width="8.0" height="8.0" fill="black" stroke="none" />

<rect x="105.0" y="144.5" width="8.0" height="8.0" fill="black" stroke="none" />

<rect x="105.0" y="160.5" width="8.0" height="8.0" fill="black" stroke="none" />

<rect x="113.0" y="120.5" width="8.0" height="8.0" fill="black" stroke="none" />

<rect x="113.0" y="136.5" width="8.0" height="8.0" fill="black" stroke="none" />

<rect x="113.0" y="152.5" width="8.0" height="8.0" fill="black" stroke="none" />

<rect x="113.0" y="168.5" width="8.0" height="8.0" fill="black" stroke="none" />

<rect x="121.0" y="128.5" width="8.0" height="8.0" fill="black" stroke="none" />

<rect x="121.0" y="144.5" width="8.0" height="8.0" fill="black" stroke="none" />

<rect x="121.0" y="160.5" width="8.0" height="8.0" fill="black" stroke="none" />

<rect x="129.0" y="120.5" width="8.0" height="8.0" fill="black" stroke="none" />

<rect x="129.0" y="136.5" width="8.0" height="8.0" fill="black" stroke="none" />

<rect x="129.0" y="152.5" width="8.0" height="8.0" fill="black" stroke="none" />

<rect x="129.0" y="168.5" width="8.0" height="8.0" fill="black" stroke="none" />

<rect x="137.0" y="128.5" width="8.0" height="8.0" fill="black" stroke="none" />

<rect x="137.0" y="144.5" width="8.0" height="8.0" fill="black" stroke="none" />

<rect x="137.0" y="160.5" width="8.0" height="8.0" fill="black" stroke="none" />

</g>

</svg>

